<svg width="157" height="24" viewBox="0 0 157 24" fill="none" xmlns="http://www.w3.org/2000/svg">
<path d="M5.472 18.5V4.868H0.096V1.7H14.736V4.868H9.36V18.5H5.472ZM21.6594 18.692C20.1874 18.692 18.8914 18.404 17.7714 17.828C16.6674 17.252 15.8114 16.468 15.2034 15.476C14.5954 14.468 14.2914 13.324 14.2914 12.044C14.2914 10.748 14.5874 9.604 15.1794 8.612C15.7874 7.604 16.6114 6.82 17.6514 6.26C18.6914 5.684 19.8674 5.396 21.1794 5.396C22.4434 5.396 23.5794 5.668 24.5874 6.212C25.6114 6.74 26.4194 7.508 27.0114 8.516C27.6034 9.508 27.8994 10.7 27.8994 12.092C27.8994 12.236 27.8914 12.404 27.8754 12.596C27.8594 12.772 27.8434 12.94 27.8274 13.1H17.3394V10.916H25.8594L24.4194 11.564C24.4194 10.892 24.2834 10.308 24.0114 9.812C23.7394 9.316 23.3634 8.932 22.8834 8.66C22.4034 8.372 21.8434 8.228 21.2034 8.228C20.5634 8.228 19.9954 8.372 19.4994 8.66C19.0194 8.932 18.6434 9.324 18.3714 9.836C18.0994 10.332 17.9634 10.924 17.9634 11.612V12.188C17.9634 12.892 18.1154 13.516 18.4194 14.06C18.7394 14.588 19.1794 14.996 19.7394 15.284C20.3154 15.556 20.9874 15.692 21.7554 15.692C22.4434 15.692 23.0434 15.588 23.5554 15.38C24.0834 15.172 24.5634 14.86 24.9954 14.444L26.9874 16.604C26.3954 17.276 25.6514 17.796 24.7554 18.164C23.8594 18.516 22.8274 18.692 21.6594 18.692ZM36.6321 18.692C35.2401 18.692 34.0001 18.412 32.9121 17.852C31.8241 17.276 30.9681 16.484 30.3441 15.476C29.7361 14.468 29.4321 13.324 29.4321 12.044C29.4321 10.748 29.7361 9.604 30.3441 8.612C30.9681 7.604 31.8241 6.82 32.9121 6.26C34.0001 5.684 35.2401 5.396 36.6321 5.396C37.9921 5.396 39.1761 5.684 40.1841 6.26C41.1921 6.82 41.9361 7.628 42.4161 8.684L39.5121 10.244C39.1761 9.636 38.7521 9.188 38.2401 8.9C37.7441 8.612 37.2001 8.468 36.6081 8.468C35.9681 8.468 35.3921 8.612 34.8801 8.9C34.3681 9.188 33.9601 9.596 33.6561 10.124C33.3681 10.652 33.2241 11.292 33.2241 12.044C33.2241 12.796 33.3681 13.436 33.6561 13.964C33.9601 14.492 34.3681 14.9 34.8801 15.188C35.3921 15.476 35.9681 15.62 36.6081 15.62C37.2001 15.62 37.7441 15.484 38.2401 15.212C38.7521 14.924 39.1761 14.468 39.5121 13.844L42.4161 15.428C41.9361 16.468 41.1921 17.276 40.1841 17.852C39.1761 18.412 37.9921 18.692 36.6321 18.692ZM52.3494 5.396C53.3734 5.396 54.2854 5.604 55.0854 6.02C55.9014 6.42 56.5414 7.044 57.0054 7.892C57.4694 8.724 57.7014 9.796 57.7014 11.108V18.5H53.9574V11.684C53.9574 10.644 53.7254 9.876 53.2614 9.38C52.8134 8.884 52.1734 8.636 51.3414 8.636C50.7494 8.636 50.2134 8.764 49.7334 9.02C49.2694 9.26 48.9014 9.636 48.6294 10.148C48.3734 10.66 48.2454 11.316 48.2454 12.116V18.5H44.5014V0.691999H48.2454V9.164L47.4054 8.084C47.8694 7.22 48.5334 6.556 49.3974 6.092C50.2614 5.628 51.2454 5.396 52.3494 5.396ZM61.3592 18.5V1.7H65.2472V15.332H73.6712V18.5H61.3592ZM81.6533 18.692C80.2773 18.692 79.0533 18.404 77.9813 17.828C76.9253 17.252 76.0853 16.468 75.4613 15.476C74.8533 14.468 74.5493 13.324 74.5493 12.044C74.5493 10.748 74.8533 9.604 75.4613 8.612C76.0853 7.604 76.9253 6.82 77.9813 6.26C79.0533 5.684 80.2773 5.396 81.6533 5.396C83.0133 5.396 84.2293 5.684 85.3013 6.26C86.3733 6.82 87.2133 7.596 87.8213 8.588C88.4293 9.58 88.7333 10.732 88.7333 12.044C88.7333 13.324 88.4293 14.468 87.8213 15.476C87.2133 16.468 86.3733 17.252 85.3013 17.828C84.2293 18.404 83.0133 18.692 81.6533 18.692ZM81.6533 15.62C82.2773 15.62 82.8373 15.476 83.3333 15.188C83.8293 14.9 84.2213 14.492 84.5093 13.964C84.7973 13.42 84.9413 12.78 84.9413 12.044C84.9413 11.292 84.7973 10.652 84.5093 10.124C84.2213 9.596 83.8293 9.188 83.3333 8.9C82.8373 8.612 82.2773 8.468 81.6533 8.468C81.0293 8.468 80.4693 8.612 79.9733 8.9C79.4773 9.188 79.0773 9.596 78.7733 10.124C78.4853 10.652 78.3413 11.292 78.3413 12.044C78.3413 12.78 78.4853 13.42 78.7733 13.964C79.0773 14.492 79.4773 14.9 79.9733 15.188C80.4693 15.476 81.0293 15.62 81.6533 15.62ZM97.3798 18.692C96.0038 18.692 94.7798 18.404 93.7078 17.828C92.6518 17.252 91.8118 16.468 91.1878 15.476C90.5798 14.468 90.2758 13.324 90.2758 12.044C90.2758 10.748 90.5798 9.604 91.1878 8.612C91.8118 7.604 92.6518 6.82 93.7078 6.26C94.7798 5.684 96.0038 5.396 97.3798 5.396C98.7398 5.396 99.9558 5.684 101.028 6.26C102.1 6.82 102.94 7.596 103.548 8.588C104.156 9.58 104.46 10.732 104.46 12.044C104.46 13.324 104.156 14.468 103.548 15.476C102.94 16.468 102.1 17.252 101.028 17.828C99.9558 18.404 98.7398 18.692 97.3798 18.692ZM97.3798 15.62C98.0038 15.62 98.5638 15.476 99.0598 15.188C99.5558 14.9 99.9478 14.492 100.236 13.964C100.524 13.42 100.668 12.78 100.668 12.044C100.668 11.292 100.524 10.652 100.236 10.124C99.9478 9.596 99.5558 9.188 99.0598 8.9C98.5638 8.612 98.0038 8.468 97.3798 8.468C96.7558 8.468 96.1958 8.612 95.6998 8.9C95.2038 9.188 94.8038 9.596 94.4998 10.124C94.2118 10.652 94.0678 11.292 94.0678 12.044C94.0678 12.78 94.2118 13.42 94.4998 13.964C94.8038 14.492 95.2038 14.9 95.6998 15.188C96.1958 15.476 96.7558 15.62 97.3798 15.62ZM114.594 18.692C113.506 18.692 112.554 18.452 111.738 17.972C110.922 17.492 110.282 16.764 109.818 15.788C109.37 14.796 109.146 13.548 109.146 12.044C109.146 10.524 109.362 9.276 109.794 8.3C110.226 7.324 110.85 6.596 111.666 6.116C112.482 5.636 113.458 5.396 114.594 5.396C115.81 5.396 116.898 5.676 117.858 6.236C118.834 6.78 119.602 7.548 120.162 8.54C120.738 9.532 121.026 10.7 121.026 12.044C121.026 13.404 120.738 14.58 120.162 15.572C119.602 16.564 118.834 17.332 117.858 17.876C116.898 18.42 115.81 18.692 114.594 18.692ZM106.962 23.156V5.588H110.538V8.228L110.466 12.068L110.706 15.884V23.156H106.962ZM113.946 15.62C114.57 15.62 115.122 15.476 115.602 15.188C116.098 14.9 116.49 14.492 116.778 13.964C117.082 13.42 117.234 12.78 117.234 12.044C117.234 11.292 117.082 10.652 116.778 10.124C116.49 9.596 116.098 9.188 115.602 8.9C115.122 8.612 114.57 8.468 113.946 8.468C113.322 8.468 112.762 8.612 112.266 8.9C111.77 9.188 111.378 9.596 111.09 10.124C110.802 10.652 110.658 11.292 110.658 12.044C110.658 12.78 110.802 13.42 111.09 13.964C111.378 14.492 111.77 14.9 112.266 15.188C112.762 15.476 113.322 15.62 113.946 15.62ZM124.808 18.692C124.168 18.692 123.616 18.476 123.152 18.044C122.704 17.596 122.48 17.028 122.48 16.34C122.48 15.652 122.704 15.1 123.152 14.684C123.616 14.252 124.168 14.036 124.808 14.036C125.464 14.036 126.016 14.252 126.464 14.684C126.912 15.1 127.136 15.652 127.136 16.34C127.136 17.028 126.912 17.596 126.464 18.044C126.016 18.476 125.464 18.692 124.808 18.692ZM132.404 18.5L126.98 5.588H130.844L135.356 16.7H133.436L138.116 5.588H141.716L136.268 18.5H132.404ZM151.092 5.396C152.116 5.396 153.028 5.604 153.828 6.02C154.644 6.42 155.284 7.044 155.748 7.892C156.212 8.724 156.444 9.796 156.444 11.108V18.5H152.7V11.684C152.7 10.644 152.468 9.876 152.004 9.38C151.556 8.884 150.916 8.636 150.084 8.636C149.492 8.636 148.956 8.764 148.476 9.02C148.012 9.26 147.644 9.636 147.372 10.148C147.116 10.66 146.988 11.316 146.988 12.116V18.5H143.244V5.588H146.82V9.164L146.148 8.084C146.612 7.22 147.276 6.556 148.14 6.092C149.004 5.628 149.988 5.396 151.092 5.396Z" fill="#4B40D4"/>
</svg>
