<svg width="18" height="18" viewBox="0 0 18 18" fill="none" xmlns="http://www.w3.org/2000/svg">
<g id="fluent-mdl2:search" clip-path="url(#clip0_315_4580)">
<path id="Vector" d="M6.1875 0C5.61914 0 5.07129 0.0732422 4.54395 0.219727C4.0166 0.366211 3.52441 0.574219 3.06738 0.84375C2.61035 1.11328 2.19434 1.43555 1.81934 1.81055C1.44434 2.18555 1.11914 2.60449 0.84375 3.06738C0.568359 3.53027 0.360352 4.02246 0.219727 4.54395C0.0791016 5.06543 0.00585938 5.61328 0 6.1875C0 6.75586 0.0732422 7.30371 0.219727 7.83105C0.366211 8.3584 0.574219 8.85059 0.84375 9.30762C1.11328 9.76465 1.43555 10.1807 1.81055 10.5557C2.18555 10.9307 2.60449 11.2559 3.06738 11.5312C3.53027 11.8066 4.02246 12.0146 4.54395 12.1553C5.06543 12.2959 5.61328 12.3691 6.1875 12.375C6.91992 12.375 7.62012 12.252 8.28809 12.0059C8.95605 11.7598 9.57422 11.4053 10.1426 10.9424L17.042 17.833C17.1533 17.9443 17.2852 18 17.4375 18C17.5898 18 17.7217 17.9443 17.833 17.833C17.9443 17.7217 18 17.5898 18 17.4375C18 17.2852 17.9443 17.1533 17.833 17.042L10.9424 10.1426C11.4053 9.58008 11.7598 8.96484 12.0059 8.29688C12.252 7.62891 12.375 6.92578 12.375 6.1875C12.375 5.61914 12.3018 5.07129 12.1553 4.54395C12.0088 4.0166 11.8008 3.52441 11.5312 3.06738C11.2617 2.61035 10.9395 2.19434 10.5645 1.81934C10.1895 1.44434 9.77051 1.11914 9.30762 0.84375C8.84473 0.568359 8.35254 0.360352 7.83105 0.219727C7.30957 0.0791016 6.76172 0.00585938 6.1875 0ZM6.1875 11.25C5.49023 11.25 4.83398 11.1182 4.21875 10.8545C3.60352 10.5908 3.06738 10.2275 2.61035 9.76465C2.15332 9.30176 1.79297 8.76562 1.5293 8.15625C1.26562 7.54688 1.13086 6.89062 1.125 6.1875C1.125 5.49023 1.25684 4.83398 1.52051 4.21875C1.78418 3.60352 2.14746 3.06738 2.61035 2.61035C3.07324 2.15332 3.60938 1.79297 4.21875 1.5293C4.82812 1.26562 5.48438 1.13086 6.1875 1.125C6.88477 1.125 7.54102 1.25684 8.15625 1.52051C8.77148 1.78418 9.30762 2.14746 9.76465 2.61035C10.2217 3.07324 10.582 3.60938 10.8457 4.21875C11.1094 4.82812 11.2441 5.48438 11.25 6.1875C11.25 6.88477 11.1182 7.54102 10.8545 8.15625C10.5908 8.77148 10.2275 9.30762 9.76465 9.76465C9.30176 10.2217 8.76562 10.582 8.15625 10.8457C7.54688 11.1094 6.89062 11.2441 6.1875 11.25Z" fill="#001EB8"/>
</g>
<defs>
<clipPath id="clip0_315_4580">
<rect width="18" height="18" fill="white" transform="matrix(-1 0 0 1 18 0)"/>
</clipPath>
</defs>
</svg>
