<svg viewBox="0 0 681 140" fill="none" xmlns="http://www.w3.org/2000/svg">
    <g clip-path="url(#clip0_2244_10328)">
        <path d="M192.513 109.909V43.0583H164.941V28.0938H209.44V43.0583V109.909H192.5H192.513Z" fill="black"/>
        <path d="M259.444 111.076C253.367 111.076 247.861 109.661 242.912 106.805C237.963 103.961 234.047 100.179 231.179 95.4723C228.297 90.7653 226.855 85.4461 226.855 79.5147C226.855 73.5833 228.242 68.3593 231.002 63.5571C233.762 58.7684 237.528 54.9729 242.273 52.1568C247.018 49.3543 252.279 47.9531 258.044 47.9531C263.808 47.9531 269.083 49.3816 273.638 52.2248C278.192 55.0681 281.768 58.9453 284.378 63.8563C286.988 68.7674 288.294 74.3723 288.294 80.6846V84.8883H243.211C243.918 87.3098 245.073 89.4865 246.719 91.4319C248.35 93.3773 250.335 94.8737 252.673 95.9348C255.012 96.9824 257.541 97.5129 260.26 97.5129C262.979 97.5129 265.399 97.1048 267.737 96.2886C270.076 95.4723 272.061 94.2888 273.692 92.7243L284.201 102.302C280.463 105.335 276.629 107.566 272.7 108.968C268.77 110.369 264.352 111.076 259.444 111.076ZM242.98 73.4472H272.645C272.02 71.0393 270.987 68.9035 269.545 67.0805C268.104 65.2576 266.378 63.8291 264.352 62.8088C262.326 61.8021 260.151 61.2852 257.812 61.2852C255.325 61.2852 253.068 61.7749 251.042 62.7408C249.016 63.7203 247.317 65.1215 245.957 66.9445C244.598 68.781 243.605 70.9441 242.98 73.4336V73.4472Z" fill="black"/>
        <path d="M325.79 111.078C319.876 111.078 314.52 109.69 309.734 106.928C304.948 104.167 301.128 100.385 298.287 95.5962C295.445 90.8076 294.018 85.4067 294.018 79.4073C294.018 73.4079 295.418 68.1431 298.219 63.3953C301.019 58.6474 304.84 54.8655 309.666 52.063C314.492 49.2606 319.863 47.8594 325.79 47.8594C330.698 47.8594 335.348 48.7981 339.753 50.6618C344.158 52.5392 347.91 55.2192 351.024 58.7291L341.33 69.1362C339.073 66.6467 336.721 64.8101 334.26 63.6402C331.813 62.4702 329.135 61.8852 326.253 61.8852C323.139 61.8852 320.339 62.6471 317.837 64.1571C315.349 65.6808 313.405 67.7622 311.991 70.415C310.591 73.0678 309.884 76.1015 309.884 79.5298C309.884 82.958 310.618 85.7877 312.1 88.4677C313.582 91.1613 315.567 93.2835 318.054 94.8344C320.542 96.3989 323.384 97.1743 326.579 97.1743C329.298 97.1743 331.854 96.5893 334.233 95.4194C336.612 94.2494 338.883 92.4945 341.072 90.1546L350.643 100.208C347.448 103.636 343.709 106.303 339.427 108.207C335.144 110.112 330.59 111.064 325.763 111.064L325.79 111.078Z" fill="black"/>
        <path d="M357.209 109.909V28.0938H373.211V54.0368C377.888 49.9012 383.612 47.8469 390.382 47.8469C395.059 47.8469 399.206 48.8808 402.822 50.9487C406.438 53.0165 409.266 55.8598 411.292 59.4785C413.318 63.0972 414.324 67.2872 414.324 72.0487V109.923H398.444V74.511C398.444 70.5386 397.289 67.396 395.005 65.097C392.707 62.7979 389.607 61.6551 385.719 61.6551C382.986 61.6551 380.58 62.1857 378.472 63.2332C376.365 64.2807 374.611 65.7908 373.211 67.7362V109.923H357.209V109.909Z" fill="black"/>
        <path d="M424.711 109.905V28.9062H440.713V109.905H424.711Z" fill="black"/>
        <path d="M616.992 133.753V49.013H632.763V54.0329C637.671 50.1421 643.436 48.1832 650.057 48.1832C655.821 48.1015 661.042 49.4619 665.705 52.278C670.382 55.0804 674.093 58.8488 676.853 63.5558C679.613 68.2764 681 73.5956 681 79.5134C681 85.4312 679.6 90.6416 676.799 95.3486C673.998 100.069 670.219 103.81 665.474 106.572C660.729 109.334 655.427 110.721 649.594 110.721C646.481 110.721 643.544 110.286 640.771 109.429C638.011 108.572 635.414 107.361 633.008 105.81V133.739H617.006L616.992 133.753ZM647.473 97.1716C650.818 97.1716 653.836 96.4098 656.528 94.8997C659.22 93.376 661.341 91.2538 662.891 88.533C664.441 85.8121 665.229 82.8056 665.229 79.527C665.229 76.2484 664.454 73.1739 662.891 70.5211C661.327 67.8683 659.206 65.7733 656.528 64.2088C653.836 62.6443 650.818 61.8689 647.473 61.8689C644.51 61.8689 641.79 62.3586 639.302 63.3245C636.814 64.304 634.707 65.7597 632.994 67.7051V91.4306C634.707 93.2264 636.828 94.6276 639.357 95.6343C641.886 96.6546 644.591 97.158 647.473 97.158V97.1716Z" fill="black"/>
        <path d="M599.509 54.9854C586.974 42.4424 566.58 42.4424 554.045 54.9854L541.361 67.678H541.347L525.672 83.2683L518.575 90.3697C511.614 97.335 500.275 97.335 493.314 90.3697C486.353 83.4044 486.353 72.0585 493.314 65.0932C496.795 61.6106 501.376 59.8693 505.944 59.8693C510.513 59.8693 515.094 61.6106 518.575 65.0932L528.173 74.6977L538.275 64.5899L528.676 54.9854C516.141 42.4424 495.748 42.4424 483.213 54.9854C477.136 61.0664 473.791 69.1473 473.791 77.7315C473.791 86.3157 477.136 94.4101 483.213 100.478C489.29 106.559 497.366 109.905 505.944 109.905C514.537 109.905 522.613 106.559 528.676 100.478L541.361 87.7849L558.559 70.6709L564.147 65.0796C567.627 61.597 572.209 59.8557 576.777 59.8557C581.345 59.8557 585.927 61.597 589.407 65.0796C596.368 72.0449 596.368 83.3908 589.407 90.3561C582.446 97.3214 571.108 97.3214 564.147 90.3561L554.739 80.942L544.637 91.0499L554.045 100.464C560.123 106.545 568.198 109.892 576.777 109.892C585.37 109.892 593.445 106.545 599.509 100.464C605.586 94.3829 608.931 86.3021 608.931 77.7179C608.931 69.1201 605.586 61.0392 599.509 54.9718V54.9854Z" fill="#4B40D4"/>
        <path d="M464.927 100.441C464.927 95.2118 460.69 90.9727 455.464 90.9727C450.238 90.9727 446.002 95.2118 446.002 100.441C446.002 105.67 450.238 109.91 455.464 109.91C460.69 109.91 464.927 105.67 464.927 100.441Z" fill="#4B40D4"/>
        <path d="M139.912 0H0V140H139.912V0Z" fill="#4B40D4"/>
        <path d="M66.0605 23.332H42.7441V116.656H66.0605V23.332Z" fill="white"/>
        <path d="M97.1523 23.332H73.8359V116.656H97.1523V23.332Z" fill="white"/>
        <path d="M66.0734 23.332H11.6641V46.6631H66.0734V23.332Z" fill="white"/>
        <path d="M128.246 104.994C128.246 98.551 123.026 93.3281 116.588 93.3281C110.149 93.3281 104.93 98.551 104.93 104.994C104.93 111.436 110.149 116.659 116.588 116.659C123.026 116.659 128.246 111.436 128.246 104.994Z" fill="white"/>
    </g>
    <defs>
        <clipPath id="clip0_2244_10328">
            <rect width="681" height="140" fill="white"/>
        </clipPath>
    </defs>
</svg>
