<svg width="22" height="22" viewBox="0 0 22 22" fill="none" xmlns="http://www.w3.org/2000/svg">
<g id="mdi:youtube">
<path id="Vector" d="M9.16927 13.7487L13.9268 10.9987L9.16927 8.2487V13.7487ZM19.7659 6.5712C19.8851 7.00203 19.9676 7.57953 20.0226 8.31286C20.0868 9.0462 20.1143 9.6787 20.1143 10.2287L20.1693 10.9987C20.1693 13.0062 20.0226 14.482 19.7659 15.4262C19.5368 16.2512 19.0051 16.7829 18.1801 17.012C17.7493 17.1312 16.9609 17.2137 15.7509 17.2687C14.5593 17.3329 13.4684 17.3604 12.4601 17.3604L11.0026 17.4154C7.16177 17.4154 4.76927 17.2687 3.8251 17.012C3.0001 16.7829 2.46844 16.2512 2.23927 15.4262C2.1201 14.9954 2.0376 14.4179 1.9826 13.6845C1.91844 12.9512 1.89094 12.3187 1.89094 11.7687L1.83594 10.9987C1.83594 8.9912 1.9826 7.51536 2.23927 6.5712C2.46844 5.7462 3.0001 5.21453 3.8251 4.98536C4.25594 4.8662 5.04427 4.7837 6.25427 4.7287C7.44594 4.66453 8.53677 4.63703 9.5451 4.63703L11.0026 4.58203C14.8434 4.58203 17.2359 4.7287 18.1801 4.98536C19.0051 5.21453 19.5368 5.7462 19.7659 6.5712Z" fill="#001EB8"/>
</g>
</svg>
