<svg width="24" height="24" viewBox="0 0 24 24" fill="none" xmlns="http://www.w3.org/2000/svg">
<path d="M5.3191 14.5044L4.48366 17.6232L1.43016 17.6878C0.517613 15.9952 0 14.0587 0 12.0008C0 10.0109 0.483955 8.13429 1.3418 6.48193H1.34246L4.06093 6.98033L5.25179 9.68249C5.00254 10.4091 4.86669 11.1892 4.86669 12.0008C4.86679 12.8817 5.02636 13.7257 5.3191 14.5044Z" fill="#FBBB00"/>
<path d="M23.7901 9.75879C23.9279 10.4847 23.9998 11.2344 23.9998 12.0006C23.9998 12.8598 23.9095 13.6978 23.7374 14.5062C23.1532 17.2571 21.6268 19.6592 19.5122 21.359L19.5115 21.3583L16.0875 21.1836L15.6029 18.1584C17.006 17.3356 18.1025 16.0478 18.6801 14.5062H12.2632V9.75879H18.7737H23.7901Z" fill="#518EF8"/>
<path d="M19.5136 21.358L19.5142 21.3586C17.4577 23.0117 14.8452 24.0007 12.0014 24.0007C7.43137 24.0007 3.45805 21.4463 1.43115 17.6873L5.32009 14.5039C6.33352 17.2086 8.94263 19.134 12.0014 19.134C13.3162 19.134 14.5479 18.7785 15.6048 18.1581L19.5136 21.358Z" fill="#28B446"/>
<path d="M19.6593 2.76273L15.7717 5.94547C14.6778 5.26172 13.3848 4.86674 11.9995 4.86674C8.87142 4.86674 6.21351 6.88042 5.25085 9.6821L1.34148 6.48155H1.34082C3.33805 2.63086 7.36148 0 11.9995 0C14.9112 0 17.581 1.03719 19.6593 2.76273Z" fill="#F14336"/>
</svg>
