<svg width="40" height="41" viewBox="0 0 40 41" fill="none" xmlns="http://www.w3.org/2000/svg">
<g clip-path="url(#clip0_45_6093)">
<path d="M20.0032 13.5608C16.2196 13.5608 13.1677 16.6133 13.1677 20.3978C13.1677 24.1822 16.2196 27.2348 20.0032 27.2348C23.7868 27.2348 26.8386 24.1822 26.8386 20.3978C26.8386 16.6133 23.7868 13.5608 20.0032 13.5608ZM20.0032 24.8427C17.5581 24.8427 15.5592 22.8493 15.5592 20.3978C15.5592 17.9462 17.5522 15.9528 20.0032 15.9528C22.4542 15.9528 24.4471 17.9462 24.4471 20.3978C24.4471 22.8493 22.4482 24.8427 20.0032 24.8427ZM28.7126 13.2811C28.7126 14.1677 27.9987 14.8758 27.1183 14.8758C26.2318 14.8758 25.5239 14.1618 25.5239 13.2811C25.5239 12.4005 26.2378 11.6864 27.1183 11.6864C27.9987 11.6864 28.7126 12.4005 28.7126 13.2811ZM33.2398 14.8996C33.1387 12.7634 32.6509 10.8712 31.0863 9.31221C29.5276 7.75321 27.6358 7.26528 25.5001 7.15817C23.299 7.03321 16.7014 7.03321 14.5003 7.15817C12.3705 7.25933 10.4787 7.74726 8.91413 9.30626C7.34952 10.8653 6.86765 12.7575 6.76057 14.8937C6.63564 17.0953 6.63564 23.6943 6.76057 25.8959C6.8617 28.0321 7.34952 29.9244 8.91413 31.4834C10.4787 33.0424 12.3646 33.5303 14.5003 33.6374C16.7014 33.7624 23.299 33.7624 25.5001 33.6374C27.6358 33.5362 29.5276 33.0483 31.0863 31.4834C32.6449 29.9244 33.1328 28.0321 33.2398 25.8959C33.3648 23.6943 33.3648 17.1013 33.2398 14.8996ZM30.3962 28.2582C29.9322 29.4245 29.0339 30.323 27.8619 30.7931C26.1069 31.4893 21.9426 31.3286 20.0032 31.3286C18.0638 31.3286 13.8935 31.4834 12.1445 30.7931C10.9785 30.329 10.0801 29.4305 9.61017 28.2582C8.91413 26.5029 9.07475 22.3376 9.07475 20.3978C9.07475 18.458 8.92008 14.2867 9.61017 12.5373C10.0742 11.371 10.9725 10.4725 12.1445 10.0025C13.8994 9.30626 18.0638 9.46692 20.0032 9.46692C21.9426 9.46692 26.1129 9.31221 27.8619 10.0025C29.0279 10.4666 29.9262 11.3651 30.3962 12.5373C31.0922 14.2927 30.9316 18.458 30.9316 20.3978C30.9316 22.3376 31.0922 26.5088 30.3962 28.2582Z" fill="#F5F5F5"/>
</g>
<defs>
<clipPath id="clip0_45_6093">
<rect width="26.6667" height="30" fill="white" transform="translate(6.66687 5.39746)"/>
</clipPath>
</defs>
</svg>
