<svg width="40" height="41" viewBox="0 0 40 41" fill="none" xmlns="http://www.w3.org/2000/svg">
<g clip-path="url(#clip0_45_6097)">
<path d="M12.7214 32.0645V15.197H7.00418V32.0645H12.7214ZM9.8635 12.8927C11.8572 12.8927 13.0982 11.5974 13.0982 9.97883C13.061 8.32373 11.8573 7.06445 9.90134 7.06445C7.94572 7.06445 6.66687 8.32375 6.66687 9.97883C6.66687 11.5975 7.90753 12.8927 9.82618 12.8927H9.86333H9.8635ZM15.8858 32.0645H21.603V22.6449C21.603 22.1407 21.6401 21.6371 21.7911 21.2768C22.2044 20.2695 23.1451 19.2263 24.7244 19.2263C26.7932 19.2263 27.6209 20.7731 27.6209 23.0406V32.0644H33.3377V22.3927C33.3377 17.2117 30.5171 14.801 26.7556 14.801C23.6714 14.801 22.3172 16.4916 21.5649 17.643H21.6031V15.1967H15.8859C15.9609 16.7794 15.8859 32.0641 15.8859 32.0641L15.8858 32.0645Z" fill="#F5F5F5"/>
</g>
<defs>
<clipPath id="clip0_45_6097">
<rect width="26.6667" height="25" fill="white" transform="translate(6.66687 7.06445)"/>
</clipPath>
</defs>
</svg>
