<svg width="40" height="41" viewBox="0 0 40 41" fill="none" xmlns="http://www.w3.org/2000/svg">
<g clip-path="url(#clip0_45_6101)">
<path d="M34.9998 11.5718C33.8764 12.0459 32.6848 12.3571 31.4647 12.4951C32.7356 11.7694 33.7114 10.6203 34.1709 9.25109C32.9627 9.9341 31.6409 10.4153 30.2626 10.674C29.1398 9.53443 27.5403 8.82227 25.77 8.82227C22.3708 8.82227 19.6149 11.4477 19.6149 14.6857C19.6149 15.1454 19.6694 15.5928 19.7743 16.0221C14.6591 15.7775 10.1239 13.4432 7.08815 9.8956C6.55847 10.7616 6.25495 11.769 6.25495 12.8434C6.25495 14.8778 7.34163 16.6724 8.99304 17.724C8.01563 17.6948 7.05974 17.4433 6.20515 16.9905C6.2048 17.0151 6.20479 17.0396 6.20479 17.0643C6.20479 19.9053 8.32636 22.2752 11.1419 22.8139C10.2356 23.0487 9.28487 23.0831 8.36245 22.9144C9.14562 25.2439 11.4187 26.9391 14.1119 26.9865C12.0055 28.5591 9.35151 29.4966 6.468 29.4966C5.97112 29.4966 5.48128 29.4688 4.99976 29.4146C7.72354 31.0783 10.9587 32.0491 14.4345 32.0491C25.7557 32.0491 31.9463 23.1142 31.9463 15.3658C31.9463 15.1114 31.9405 14.8586 31.9285 14.6071C33.1335 13.7773 34.1735 12.7494 34.9998 11.5718Z" fill="#F5F5F5"/>
</g>
<defs>
<clipPath id="clip0_45_6101">
<rect width="30" height="23.3333" fill="white" transform="translate(4.99976 8.73047)"/>
</clipPath>
</defs>
</svg>
