<svg width="252" height="36" viewBox="0 0 252 36" fill="none" xmlns="http://www.w3.org/2000/svg">
<path d="M243.373 7.53857C245.024 7.53857 246.494 7.87191 247.783 8.53857C249.099 9.17959 250.13 10.1796 250.878 11.5386C251.626 12.8719 252 14.5898 252 16.6924V28.5385H245.965V17.6155C245.965 15.9488 245.591 14.718 244.843 13.9232C244.121 13.1283 243.09 12.7309 241.749 12.7309C240.795 12.7309 239.931 12.936 239.157 13.3462C238.409 13.7309 237.816 14.3334 237.378 15.1539C236.965 15.9744 236.759 17.0257 236.759 18.3078V28.5385H230.724V7.84626H236.488V13.577L235.405 11.8463C236.153 10.4616 237.223 9.39754 238.615 8.65395C240.008 7.91037 241.594 7.53857 243.373 7.53857Z" fill="#F5F5F5"/>
<path d="M213.253 28.5379L204.511 7.8457H210.739L218.011 25.6533H214.916L222.46 7.8457H228.262L219.481 28.5379H213.253Z" fill="#F5F5F5"/>
<path d="M201.01 28.8463C199.979 28.8463 199.089 28.5001 198.341 27.8078C197.619 27.0899 197.258 26.1796 197.258 25.0771C197.258 23.9745 197.619 23.0899 198.341 22.4232C199.089 21.7309 199.979 21.3848 201.01 21.3848C202.067 21.3848 202.957 21.7309 203.679 22.4232C204.401 23.0899 204.762 23.9745 204.762 25.0771C204.762 26.1796 204.401 27.0899 203.679 27.8078C202.957 28.5001 202.067 28.8463 201.01 28.8463Z" fill="#F5F5F5"/>
<path d="M184.548 28.8462C182.794 28.8462 181.26 28.4616 179.945 27.6923C178.629 26.9231 177.598 25.7565 176.85 24.1924C176.128 22.6026 175.767 20.6026 175.767 18.1924C175.767 15.7565 176.115 13.7565 176.811 12.1924C177.507 10.6283 178.513 9.46164 179.828 8.69241C181.144 7.92319 182.717 7.53857 184.548 7.53857C186.508 7.53857 188.261 7.98729 189.809 8.88472C191.382 9.75651 192.62 10.9873 193.522 12.577C194.451 14.1668 194.915 16.0385 194.915 18.1924C194.915 20.3719 194.451 22.2565 193.522 23.8462C192.62 25.4359 191.382 26.6667 189.809 27.5385C188.261 28.4103 186.508 28.8462 184.548 28.8462ZM172.247 36V7.84626H178.01V12.077L177.894 18.2308L178.281 24.3462V36H172.247ZM183.503 23.9231C184.509 23.9231 185.399 23.6924 186.172 23.2308C186.972 22.7693 187.604 22.1154 188.068 21.2693C188.558 20.3975 188.803 19.3719 188.803 18.1924C188.803 16.9873 188.558 15.9616 188.068 15.1155C187.604 14.2693 186.972 13.6155 186.172 13.1539C185.399 12.6924 184.509 12.4616 183.503 12.4616C182.498 12.4616 181.595 12.6924 180.796 13.1539C179.996 13.6155 179.364 14.2693 178.9 15.1155C178.436 15.9616 178.204 16.9873 178.204 18.1924C178.204 19.3719 178.436 20.3975 178.9 21.2693C179.364 22.1154 179.996 22.7693 180.796 23.2308C181.595 23.6924 182.498 23.9231 183.503 23.9231Z" fill="#F5F5F5"/>
<path d="M156.801 28.8462C154.583 28.8462 152.611 28.3847 150.883 27.4616C149.181 26.5385 147.827 25.2821 146.821 23.6924C145.841 22.077 145.351 20.2437 145.351 18.1924C145.351 16.1155 145.841 14.2821 146.821 12.6924C147.827 11.077 149.181 9.82062 150.883 8.92318C152.611 8.00011 154.583 7.53857 156.801 7.53857C158.993 7.53857 160.953 8.00011 162.681 8.92318C164.409 9.82062 165.763 11.0642 166.743 12.6539C167.723 14.2437 168.213 16.0898 168.213 18.1924C168.213 20.2437 167.723 22.077 166.743 23.6924C165.763 25.2821 164.409 26.5385 162.681 27.4616C160.953 28.3847 158.993 28.8462 156.801 28.8462ZM156.801 23.9231C157.807 23.9231 158.71 23.6924 159.509 23.2308C160.309 22.7693 160.94 22.1154 161.405 21.2693C161.869 20.3975 162.101 19.3719 162.101 18.1924C162.101 16.9873 161.869 15.9616 161.405 15.1155C160.94 14.2693 160.309 13.6155 159.509 13.1539C158.71 12.6924 157.807 12.4616 156.801 12.4616C155.795 12.4616 154.893 12.6924 154.093 13.1539C153.294 13.6155 152.649 14.2693 152.159 15.1155C151.695 15.9616 151.463 16.9873 151.463 18.1924C151.463 19.3719 151.695 20.3975 152.159 21.2693C152.649 22.1154 153.294 22.7693 154.093 23.2308C154.893 23.6924 155.795 23.9231 156.801 23.9231Z" fill="#F5F5F5"/>
<path d="M131.454 28.8462C129.236 28.8462 127.263 28.3847 125.535 27.4616C123.833 26.5385 122.479 25.2821 121.473 23.6924C120.493 22.077 120.003 20.2437 120.003 18.1924C120.003 16.1155 120.493 14.2821 121.473 12.6924C122.479 11.077 123.833 9.82062 125.535 8.92318C127.263 8.00011 129.236 7.53857 131.454 7.53857C133.646 7.53857 135.606 8.00011 137.333 8.92318C139.061 9.82062 140.415 11.0642 141.395 12.6539C142.375 14.2437 142.865 16.0898 142.865 18.1924C142.865 20.2437 142.375 22.077 141.395 23.6924C140.415 25.2821 139.061 26.5385 137.333 27.4616C135.606 28.3847 133.646 28.8462 131.454 28.8462ZM131.454 23.9231C132.459 23.9231 133.362 23.6924 134.161 23.2308C134.961 22.7693 135.593 22.1154 136.057 21.2693C136.521 20.3975 136.753 19.3719 136.753 18.1924C136.753 16.9873 136.521 15.9616 136.057 15.1155C135.593 14.2693 134.961 13.6155 134.161 13.1539C133.362 12.6924 132.459 12.4616 131.454 12.4616C130.448 12.4616 129.545 12.6924 128.746 13.1539C127.946 13.6155 127.302 14.2693 126.812 15.1155C126.347 15.9616 126.115 16.9873 126.115 18.1924C126.115 19.3719 126.347 20.3975 126.812 21.2693C127.302 22.1154 127.946 22.7693 128.746 23.2308C129.545 23.6924 130.448 23.9231 131.454 23.9231Z" fill="#F5F5F5"/>
<path d="M98.7437 28.5382V1.61523H105.01V23.4613H118.588V28.5382H98.7437Z" fill="#F5F5F5"/>
<path d="M84.2216 7.53843C85.8721 7.53843 87.342 7.87177 88.6315 8.53843C89.9467 9.17945 90.9783 10.1794 91.7261 11.5384C92.474 12.8717 92.8479 14.5897 92.8479 16.6922V28.5384H86.8134V17.6153C86.8134 15.9487 86.4394 14.7179 85.6916 13.923C84.9695 13.1282 83.9379 12.7307 82.5969 12.7307C81.6427 12.7307 80.7788 12.9359 80.0052 13.3461C79.2573 13.7307 78.6642 14.3333 78.2257 15.1538C77.8131 15.9743 77.6068 17.0256 77.6068 18.3076V28.5384H71.5723V0H77.6068V13.5769L76.2529 11.8461C77.0008 10.4615 78.071 9.3974 79.4636 8.65381C80.8562 7.91023 82.4422 7.53843 84.2216 7.53843Z" fill="#F5F5F5"/>
<path d="M58.8886 28.8462C56.645 28.8462 54.6464 28.3975 52.8927 27.5C51.1391 26.577 49.7594 25.3077 48.7536 23.6924C47.7737 22.077 47.2837 20.2437 47.2837 18.1924C47.2837 16.1155 47.7737 14.2821 48.7536 12.6924C49.7594 11.077 51.1391 9.82062 52.8927 8.92318C54.6464 8.00011 56.645 7.53857 58.8886 7.53857C61.0806 7.53857 62.989 8.00011 64.6137 8.92318C66.2384 9.82062 67.4375 11.1155 68.2112 12.8078L63.5306 15.3078C62.989 14.3334 62.3056 13.6155 61.4804 13.1539C60.6809 12.6924 59.8041 12.4616 58.8499 12.4616C57.8184 12.4616 56.89 12.6924 56.0647 13.1539C55.2395 13.6155 54.5819 14.2693 54.0919 15.1155C53.6277 15.9616 53.3956 16.9873 53.3956 18.1924C53.3956 19.3975 53.6277 20.4231 54.0919 21.2693C54.5819 22.1154 55.2395 22.7693 56.0647 23.2308C56.89 23.6924 57.8184 23.9231 58.8499 23.9231C59.8041 23.9231 60.6809 23.7052 61.4804 23.2693C62.3056 22.8077 62.989 22.077 63.5306 21.077L68.2112 23.6154C67.4375 25.2821 66.2384 26.577 64.6137 27.5C62.989 28.3975 61.0806 28.8462 58.8886 28.8462Z" fill="#F5F5F5"/>
<path d="M34.7556 28.8462C32.383 28.8462 30.2941 28.3847 28.4889 27.4616C26.7095 26.5385 25.3298 25.2821 24.3498 23.6924C23.3699 22.077 22.8799 20.2437 22.8799 18.1924C22.8799 16.1155 23.357 14.2821 24.3112 12.6924C25.2911 11.077 26.6192 9.82062 28.2955 8.92318C29.9718 8.00011 31.8672 7.53857 33.9819 7.53857C36.0192 7.53857 37.8502 7.97447 39.4749 8.84626C41.1254 9.69241 42.4277 10.9232 43.3819 12.5386C44.3361 14.1283 44.8132 16.0385 44.8132 18.2693C44.8132 18.5001 44.8003 18.7693 44.7745 19.077C44.7487 19.359 44.7229 19.6283 44.6971 19.8847H27.7926V16.3847H41.5251L39.2041 17.4232C39.2041 16.3462 38.9849 15.4103 38.5465 14.6155C38.1081 13.8206 37.5021 13.2052 36.7284 12.7693C35.9547 12.3078 35.0521 12.077 34.0206 12.077C32.989 12.077 32.0735 12.3078 31.2741 12.7693C30.5004 13.2052 29.8944 13.8334 29.456 14.6539C29.0176 15.4488 28.7984 16.3975 28.7984 17.5001V18.4232C28.7984 19.5514 29.0434 20.5513 29.5334 21.4231C30.0491 22.2693 30.7583 22.9231 31.6609 23.3847C32.5893 23.8206 33.6724 24.0385 34.9103 24.0385C36.0192 24.0385 36.9863 23.8718 37.8115 23.5385C38.6626 23.2052 39.4362 22.7052 40.1325 22.0385L43.3432 25.5C42.389 26.577 41.1898 27.4103 39.7457 28C38.3015 28.5641 36.6381 28.8462 34.7556 28.8462Z" fill="#F5F5F5"/>
<path d="M8.665 28.5382V6.69214H0V1.61523H23.5966V6.69214H14.9317V28.5382H8.665Z" fill="#F5F5F5"/>
</svg>
