<svg xmlns="http://www.w3.org/2000/svg" width="288" height="60" viewBox="0 0 288 60" fill="none">
    <g clip-path="url(#clip0_2432_3043)">
        <path d="M81.4142 47.1027V18.4524H69.7539V12.0391H88.5725V18.4524V47.1027H81.4084H81.4142Z" fill="white"/>
        <path d="M109.721 47.6055C107.151 47.6055 104.823 46.9991 102.73 45.7748C100.637 44.5562 98.981 42.9354 97.7678 40.9181C96.5489 38.9008 95.9395 36.6211 95.9395 34.0791C95.9395 31.5371 96.5259 29.2982 97.6931 27.2401C98.8603 25.1879 100.453 23.5612 102.46 22.3543C104.466 21.1533 106.691 20.5527 109.129 20.5527C111.567 20.5527 113.798 21.1649 115.724 22.3835C117.65 23.602 119.162 25.2636 120.266 27.3684C121.37 29.4731 121.922 31.8752 121.922 34.5805V36.3821H102.856C103.155 37.4199 103.644 38.3528 104.34 39.1865C105.03 40.0202 105.869 40.6616 106.858 41.1163C107.847 41.5653 108.916 41.7927 110.066 41.7927C111.216 41.7927 112.24 41.6177 113.229 41.2679C114.218 40.9181 115.057 40.4109 115.747 39.7404L120.191 43.8449C118.61 45.1451 116.989 46.1013 115.327 46.7018C113.666 47.3023 111.797 47.6055 109.721 47.6055ZM102.759 31.4788H115.304C115.04 30.4468 114.603 29.5315 113.993 28.7502C113.384 27.9689 112.654 27.3567 111.797 26.9195C110.94 26.488 110.02 26.2665 109.031 26.2665C107.979 26.2665 107.025 26.4764 106.168 26.8903C105.311 27.3101 104.593 27.9106 104.018 28.6919C103.443 29.479 103.023 30.406 102.759 31.473V31.4788Z" fill="white"/>
        <path d="M137.779 47.6053C135.278 47.6053 133.012 47.0106 130.988 45.827C128.965 44.6435 127.349 43.0226 126.147 40.9704C124.946 38.9181 124.342 36.6034 124.342 34.0323C124.342 31.4611 124.934 29.2048 126.118 27.17C127.303 25.1352 128.919 23.5143 130.96 22.3133C133.001 21.1122 135.272 20.5117 137.779 20.5117C139.854 20.5117 141.821 20.914 143.684 21.7128C145.547 22.5174 147.133 23.6659 148.45 25.1702L144.351 29.6304C143.396 28.5634 142.401 27.7763 141.361 27.2749C140.326 26.7735 139.193 26.5228 137.974 26.5228C136.658 26.5228 135.473 26.8493 134.415 27.4965C133.363 28.1495 132.541 29.0415 131.943 30.1784C131.351 31.3153 131.052 32.6155 131.052 34.0847C131.052 35.554 131.362 36.7667 131.989 37.9153C132.616 39.0697 133.455 39.9792 134.507 40.6439C135.559 41.3144 136.761 41.6467 138.112 41.6467C139.262 41.6467 140.343 41.396 141.349 40.8946C142.355 40.3932 143.316 39.6411 144.241 38.6382L148.289 42.9469C146.938 44.4161 145.357 45.5588 143.546 46.3751C141.734 47.1913 139.808 47.5995 137.767 47.5995L137.779 47.6053Z" fill="white"/>
        <path d="M151.066 47.1027V12.0391H157.834V23.1575C159.812 21.3851 162.232 20.5047 165.096 20.5047C167.073 20.5047 168.827 20.9478 170.356 21.834C171.886 22.7202 173.082 23.9388 173.939 25.4897C174.795 27.0405 175.221 28.8363 175.221 30.8769V47.1085H168.505V31.9322C168.505 30.2297 168.016 28.8829 167.05 27.8976C166.079 26.9123 164.768 26.4225 163.123 26.4225C161.968 26.4225 160.95 26.6499 160.059 27.0988C159.168 27.5478 158.426 28.1949 157.834 29.0287V47.1085H151.066V47.1027Z" fill="white"/>
        <path d="M179.613 47.1025V12.3887H186.381V47.1025H179.613Z" fill="white"/>
        <path d="M260.93 57.3247V21.0075H267.599V23.1589C269.675 21.4914 272.113 20.6519 274.913 20.6519C277.351 20.6169 279.559 21.1999 281.531 22.4068C283.509 23.6079 285.078 25.2229 286.245 27.2402C287.413 29.2633 287.999 31.5429 287.999 34.0791C287.999 36.6153 287.407 38.8484 286.222 40.8657C285.038 42.8888 283.44 44.4921 281.433 45.6757C279.426 46.8592 277.184 47.4539 274.717 47.4539C273.401 47.4539 272.159 47.2674 270.986 46.9001C269.819 46.5327 268.72 46.0138 267.703 45.3492V57.3189H260.935L260.93 57.3247ZM273.82 41.6469C275.235 41.6469 276.511 41.3204 277.65 40.6733C278.788 40.0203 279.685 39.1107 280.34 37.9447C280.996 36.7786 281.329 35.4901 281.329 34.085C281.329 32.6799 281.002 31.3622 280.34 30.2253C279.679 29.0884 278.782 28.1905 277.65 27.52C276.511 26.8495 275.235 26.5172 273.82 26.5172C272.567 26.5172 271.417 26.7271 270.365 27.141C269.313 27.5608 268.421 28.1847 267.697 29.0184V39.1865C268.421 39.9561 269.318 40.5566 270.388 40.9881C271.457 41.4254 272.601 41.6411 273.82 41.6411V41.6469Z" fill="white"/>
        <path d="M253.536 23.5668C248.235 18.1913 239.611 18.1913 234.309 23.5668L228.945 29.0065H228.939L222.31 35.6881L219.308 38.7315C216.365 41.7167 211.569 41.7167 208.626 38.7315C205.682 35.7464 205.682 30.8839 208.626 27.8988C210.098 26.4062 212.035 25.6599 213.967 25.6599C215.899 25.6599 217.837 26.4062 219.308 27.8988L223.368 32.015L227.64 27.6831L223.58 23.5668C218.279 18.1913 209.655 18.1913 204.354 23.5668C201.784 26.173 200.369 29.6362 200.369 33.3152C200.369 36.9941 201.784 40.4632 204.354 43.0635C206.924 45.6696 210.339 47.1039 213.967 47.1039C217.601 47.1039 221.016 45.6696 223.58 43.0635L228.945 37.6238L236.218 30.2892L238.581 27.8929C240.053 26.4004 241.991 25.6541 243.923 25.6541C245.855 25.6541 247.792 26.4004 249.264 27.8929C252.208 30.8781 252.208 35.7406 249.264 38.7257C246.32 41.7108 241.525 41.7108 238.581 38.7257L234.603 34.6911L230.331 39.0231L234.309 43.0577C236.879 45.6638 240.295 47.0981 243.923 47.0981C247.557 47.0981 250.972 45.6638 253.536 43.0577C256.106 40.4515 257.521 36.9883 257.521 33.3093C257.521 29.6246 256.106 26.1613 253.536 23.561V23.5668Z" fill="white"/>
        <path d="M196.621 43.0462C196.621 40.8051 194.829 38.9883 192.619 38.9883C190.409 38.9883 188.617 40.8051 188.617 43.0462C188.617 45.2873 190.409 47.1041 192.619 47.1041C194.829 47.1041 196.621 45.2873 196.621 43.0462Z" fill="white"/>
        <path fill-rule="evenodd" clip-rule="evenodd" d="M59.1697 0H0V60H59.1697V0ZM4.9332 10H18.0769H27.9375H27.9433V19.999H27.9375V49.9961H18.0769V19.999H4.9332V10ZM31.2264 10H41.087V49.9961H31.2264V10ZM49.3061 39.998C52.0291 39.998 54.2364 42.2364 54.2364 44.9976C54.2364 47.7587 52.0291 49.9971 49.3061 49.9971C46.5832 49.9971 44.3758 47.7587 44.3758 44.9976C44.3758 42.2364 46.5832 39.998 49.3061 39.998Z" fill="white"/>
    </g>
    <defs>
        <clipPath id="clip0_2432_3043">
            <rect width="288" height="60" fill="white"/>
        </clipPath>
    </defs>
</svg>