<?xml version="1.0" encoding="UTF-8"?>
<!DOCTYPE svg PUBLIC "-//W3C//DTD SVG 1.1//EN" "http://www.w3.org/Graphics/SVG/1.1/DTD/svg11.dtd">
<svg xmlns="http://www.w3.org/2000/svg" version="1.1" width="1194px" height="200px" style="shape-rendering:geometricPrecision; text-rendering:geometricPrecision; image-rendering:optimizeQuality; fill-rule:evenodd; clip-rule:evenodd" xmlns:xlink="http://www.w3.org/1999/xlink">
<g><path style="opacity:1" fill="#1c1b2a" d="M -0.5,-0.5 C 397.5,-0.5 795.5,-0.5 1193.5,-0.5C 1193.5,66.1667 1193.5,132.833 1193.5,199.5C 795.5,199.5 397.5,199.5 -0.5,199.5C -0.5,132.833 -0.5,66.1667 -0.5,-0.5 Z"/></g>
<g><path style="opacity:1" fill="#ececec" d="M 489.5,85.5 C 492.448,85.2229 495.281,85.5562 498,86.5C 500.867,95.6022 504.034,104.602 507.5,113.5C 505.257,114.474 502.924,114.808 500.5,114.5C 500.984,109.199 498.651,106.866 493.5,107.5C 488.349,106.866 486.016,109.199 486.5,114.5C 484.076,114.808 481.743,114.474 479.5,113.5C 482.645,104.062 485.978,94.729 489.5,85.5 Z"/></g>
<g><path style="opacity:1" fill="#e6e6e7" d="M 510.5,85.5 C 517.391,84.9013 524.058,85.7346 530.5,88C 535.202,92.9218 536.702,98.7552 535,105.5C 533.5,109.667 530.667,112.5 526.5,114C 521.177,114.499 515.844,114.666 510.5,114.5C 510.5,104.833 510.5,95.1667 510.5,85.5 Z"/></g>
<g><path style="opacity:1" fill="#f0f0f1" d="M 549.5,85.5 C 555.621,85.0899 561.621,85.5899 567.5,87C 571.665,91.3524 571.331,95.3524 566.5,99C 571.689,101.913 572.856,106.08 570,111.5C 569.097,112.701 567.931,113.535 566.5,114C 560.843,114.499 555.176,114.666 549.5,114.5C 549.5,104.833 549.5,95.1667 549.5,85.5 Z"/></g>
<g><path style="opacity:1" fill="#ededed" d="M 583.5,85.5 C 586.5,85.5 589.5,85.5 592.5,85.5C 595.404,95.1433 598.737,104.643 602.5,114C 597.35,115.52 594.35,113.686 593.5,108.5C 589.893,107.511 586.226,107.177 582.5,107.5C 582.934,113.4 580.268,115.733 574.5,114.5C 577.302,104.762 580.302,95.095 583.5,85.5 Z"/></g>
<g><path style="opacity:1" fill="#eaeaea" d="M 622.5,102.5 C 622.56,103.043 622.893,103.376 623.5,103.5C 624.496,97.5368 624.829,91.5368 624.5,85.5C 626.5,85.5 628.5,85.5 630.5,85.5C 630.5,95.1667 630.5,104.833 630.5,114.5C 628.473,114.662 626.473,114.495 624.5,114C 620.701,108.892 617.034,103.725 613.5,98.5C 613.217,97.7109 612.717,97.0442 612,96.5C 611.501,102.491 611.334,108.491 611.5,114.5C 609.5,114.5 607.5,114.5 605.5,114.5C 605.5,104.833 605.5,95.1667 605.5,85.5C 607.527,85.3379 609.527,85.5045 611.5,86C 615.053,91.6146 618.72,97.1146 622.5,102.5 Z"/></g>
<g><path style="opacity:1" fill="#a3a3a8" d="M 624.5,85.5 C 624.829,91.5368 624.496,97.5368 623.5,103.5C 622.893,103.376 622.56,103.043 622.5,102.5C 623.167,96.8333 623.833,91.1667 624.5,85.5 Z"/></g>
<g><path style="opacity:1" fill="#eeedee" d="M 651.5,101.5 C 651.783,102.289 652.283,102.956 653,103.5C 653.499,97.5092 653.666,91.5092 653.5,85.5C 655.5,85.5 657.5,85.5 659.5,85.5C 659.5,95.1667 659.5,104.833 659.5,114.5C 657.396,114.799 655.396,114.466 653.5,113.5C 649.86,108.027 646.027,102.694 642,97.5C 641.501,103.157 641.334,108.824 641.5,114.5C 639.5,114.5 637.5,114.5 635.5,114.5C 635.5,104.833 635.5,95.1667 635.5,85.5C 637.604,85.2011 639.604,85.5344 641.5,86.5C 644.859,91.5178 648.193,96.5178 651.5,101.5 Z"/></g>
<g><path style="opacity:1" fill="#55555f" d="M 653.5,85.5 C 653.666,91.5092 653.499,97.5092 653,103.5C 652.283,102.956 651.783,102.289 651.5,101.5C 652.167,96.1667 652.833,90.8333 653.5,85.5 Z"/></g>
<g><path style="opacity:1" fill="#f1f1f1" d="M 664.5,85.5 C 671.167,85.5 677.833,85.5 684.5,85.5C 684.5,87.1667 684.5,88.8333 684.5,90.5C 679.833,90.5 675.167,90.5 670.5,90.5C 670.5,92.8333 670.5,95.1667 670.5,97.5C 674.833,97.5 679.167,97.5 683.5,97.5C 683.5,99.1667 683.5,100.833 683.5,102.5C 679.167,102.5 674.833,102.5 670.5,102.5C 670.5,104.833 670.5,107.167 670.5,109.5C 675.167,109.5 679.833,109.5 684.5,109.5C 684.5,111.167 684.5,112.833 684.5,114.5C 677.833,114.5 671.167,114.5 664.5,114.5C 664.5,104.833 664.5,95.1667 664.5,85.5 Z"/></g>
<g><path style="opacity:1" fill="#e6e6e7" d="M 688.5,85.5 C 693.844,85.334 699.177,85.5006 704.5,86C 707.057,86.6853 708.891,88.1853 710,90.5C 710.667,93.5 710.667,96.5 710,99.5C 708.437,100.725 707.27,102.225 706.5,104C 708.287,107.072 709.953,110.239 711.5,113.5C 709.167,114.833 706.833,114.833 704.5,113.5C 703.333,111.167 702.167,108.833 701,106.5C 699.556,104.845 697.722,104.178 695.5,104.5C 695.5,107.833 695.5,111.167 695.5,114.5C 693.167,114.5 690.833,114.5 688.5,114.5C 688.5,104.833 688.5,95.1667 688.5,85.5 Z"/></g>
<g><path style="opacity:1" fill="#1f1e2d" d="M 555.5,90.5 C 557.857,90.3367 560.19,90.5034 562.5,91C 565.167,93 565.167,95 562.5,97C 560.19,97.4966 557.857,97.6633 555.5,97.5C 555.5,95.1667 555.5,92.8333 555.5,90.5 Z"/></g>
<g><path style="opacity:1" fill="#232231" d="M 695.5,90.5 C 702.468,88.9712 705.135,91.4712 703.5,98C 700.986,99.2525 698.32,99.7525 695.5,99.5C 695.5,96.5 695.5,93.5 695.5,90.5 Z"/></g>
<g><path style="opacity:1" fill="#222130" d="M 517.5,90.5 C 527.193,90.1823 531.026,94.849 529,104.5C 526.217,108.473 522.384,110.139 517.5,109.5C 517.5,103.167 517.5,96.8333 517.5,90.5 Z"/></g>
<g><path style="opacity:1" fill="#2a2937" d="M 591.5,102.5 C 588.918,102.975 586.918,102.308 585.5,100.5C 586.031,97.763 586.864,95.0964 588,92.5C 589.776,95.5969 590.943,98.9302 591.5,102.5 Z"/></g>
<g><path style="opacity:1" fill="#252332" d="M 496.5,101.5 C 494.5,102.833 492.5,102.833 490.5,101.5C 492.5,90.8333 494.5,90.8333 496.5,101.5 Z"/></g>
<g><path style="opacity:1" fill="#6c6c75" d="M 613.5,98.5 C 612.833,103.833 612.167,109.167 611.5,114.5C 611.334,108.491 611.501,102.491 612,96.5C 612.717,97.0442 613.217,97.7109 613.5,98.5 Z"/></g>
<g><path style="opacity:1" fill="#7e7e86" d="M 490.5,101.5 C 492.5,102.833 494.5,102.833 496.5,101.5C 497.043,101.56 497.376,101.893 497.5,102.5C 494.833,103.833 492.167,103.833 489.5,102.5C 489.624,101.893 489.957,101.56 490.5,101.5 Z"/></g>
<g><path style="opacity:1" fill="#252433" d="M 555.5,101.5 C 557.857,101.337 560.19,101.503 562.5,102C 566.037,103.826 566.371,106.16 563.5,109C 560.854,109.497 558.187,109.664 555.5,109.5C 555.5,106.833 555.5,104.167 555.5,101.5 Z"/></g>
<g><path style="opacity:1" fill="#6f6f78" d="M 585.5,100.5 C 586.918,102.308 588.918,102.975 591.5,102.5C 589.393,103.468 587.059,103.802 584.5,103.5C 584.263,102.209 584.596,101.209 585.5,100.5 Z"/></g>
</svg>
