<?xml version="1.0" encoding="UTF-8"?>
<!DOCTYPE svg PUBLIC "-//W3C//DTD SVG 1.1//EN" "http://www.w3.org/Graphics/SVG/1.1/DTD/svg11.dtd">
<svg xmlns="http://www.w3.org/2000/svg" version="1.1" width="382px" height="999px" style="shape-rendering:geometricPrecision; text-rendering:geometricPrecision; image-rendering:optimizeQuality; fill-rule:evenodd; clip-rule:evenodd" xmlns:xlink="http://www.w3.org/1999/xlink">
<g><path style="opacity:1" fill="#1c1b2a" d="M -0.5,-0.5 C 126.833,-0.5 254.167,-0.5 381.5,-0.5C 381.5,332.5 381.5,665.5 381.5,998.5C 254.167,998.5 126.833,998.5 -0.5,998.5C -0.5,665.5 -0.5,332.5 -0.5,-0.5 Z"/></g>
<g><path style="opacity:1" fill="#ececec" d="M 84.5,479.5 C 87.4475,479.223 90.2809,479.556 93,480.5C 95.8674,489.602 99.0341,498.602 102.5,507.5C 100.257,508.474 97.924,508.808 95.5,508.5C 95.9839,503.199 93.6506,500.866 88.5,501.5C 83.3494,500.866 81.0161,503.199 81.5,508.5C 79.076,508.808 76.7427,508.474 74.5,507.5C 77.6451,498.062 80.9784,488.729 84.5,479.5 Z"/></g>
<g><path style="opacity:1" fill="#e6e6e7" d="M 105.5,479.5 C 112.391,478.901 119.058,479.735 125.5,482C 130.202,486.922 131.702,492.755 130,499.5C 128.5,503.667 125.667,506.5 121.5,508C 116.177,508.499 110.844,508.666 105.5,508.5C 105.5,498.833 105.5,489.167 105.5,479.5 Z"/></g>
<g><path style="opacity:1" fill="#f0f0f1" d="M 144.5,479.5 C 150.621,479.09 156.621,479.59 162.5,481C 166.665,485.352 166.331,489.352 161.5,493C 166.689,495.913 167.856,500.08 165,505.5C 164.097,506.701 162.931,507.535 161.5,508C 155.843,508.499 150.176,508.666 144.5,508.5C 144.5,498.833 144.5,489.167 144.5,479.5 Z"/></g>
<g><path style="opacity:1" fill="#ededed" d="M 178.5,479.5 C 181.5,479.5 184.5,479.5 187.5,479.5C 190.404,489.143 193.737,498.643 197.5,508C 192.35,509.52 189.35,507.686 188.5,502.5C 184.893,501.511 181.226,501.177 177.5,501.5C 177.934,507.4 175.268,509.733 169.5,508.5C 172.302,498.762 175.302,489.095 178.5,479.5 Z"/></g>
<g><path style="opacity:1" fill="#eaeaea" d="M 217.5,496.5 C 217.56,497.043 217.893,497.376 218.5,497.5C 219.496,491.537 219.829,485.537 219.5,479.5C 221.5,479.5 223.5,479.5 225.5,479.5C 225.5,489.167 225.5,498.833 225.5,508.5C 223.473,508.662 221.473,508.495 219.5,508C 215.701,502.892 212.034,497.725 208.5,492.5C 208.217,491.711 207.717,491.044 207,490.5C 206.501,496.491 206.334,502.491 206.5,508.5C 204.5,508.5 202.5,508.5 200.5,508.5C 200.5,498.833 200.5,489.167 200.5,479.5C 202.527,479.338 204.527,479.505 206.5,480C 210.053,485.615 213.72,491.115 217.5,496.5 Z"/></g>
<g><path style="opacity:1" fill="#a3a3a8" d="M 219.5,479.5 C 219.829,485.537 219.496,491.537 218.5,497.5C 217.893,497.376 217.56,497.043 217.5,496.5C 218.167,490.833 218.833,485.167 219.5,479.5 Z"/></g>
<g><path style="opacity:1" fill="#eeedee" d="M 246.5,495.5 C 246.783,496.289 247.283,496.956 248,497.5C 248.499,491.509 248.666,485.509 248.5,479.5C 250.5,479.5 252.5,479.5 254.5,479.5C 254.5,489.167 254.5,498.833 254.5,508.5C 252.396,508.799 250.396,508.466 248.5,507.5C 244.86,502.027 241.027,496.694 237,491.5C 236.501,497.157 236.334,502.824 236.5,508.5C 234.5,508.5 232.5,508.5 230.5,508.5C 230.5,498.833 230.5,489.167 230.5,479.5C 232.604,479.201 234.604,479.534 236.5,480.5C 239.859,485.518 243.193,490.518 246.5,495.5 Z"/></g>
<g><path style="opacity:1" fill="#55555f" d="M 248.5,479.5 C 248.666,485.509 248.499,491.509 248,497.5C 247.283,496.956 246.783,496.289 246.5,495.5C 247.167,490.167 247.833,484.833 248.5,479.5 Z"/></g>
<g><path style="opacity:1" fill="#f1f1f1" d="M 259.5,479.5 C 266.167,479.5 272.833,479.5 279.5,479.5C 279.5,481.167 279.5,482.833 279.5,484.5C 274.833,484.5 270.167,484.5 265.5,484.5C 265.5,486.833 265.5,489.167 265.5,491.5C 269.833,491.5 274.167,491.5 278.5,491.5C 278.5,493.167 278.5,494.833 278.5,496.5C 274.167,496.5 269.833,496.5 265.5,496.5C 265.5,498.833 265.5,501.167 265.5,503.5C 270.167,503.5 274.833,503.5 279.5,503.5C 279.5,505.167 279.5,506.833 279.5,508.5C 272.833,508.5 266.167,508.5 259.5,508.5C 259.5,498.833 259.5,489.167 259.5,479.5 Z"/></g>
<g><path style="opacity:1" fill="#e6e6e7" d="M 283.5,479.5 C 288.844,479.334 294.177,479.501 299.5,480C 302.057,480.685 303.891,482.185 305,484.5C 305.667,487.5 305.667,490.5 305,493.5C 303.437,494.725 302.27,496.225 301.5,498C 303.287,501.072 304.953,504.239 306.5,507.5C 304.167,508.833 301.833,508.833 299.5,507.5C 298.333,505.167 297.167,502.833 296,500.5C 294.556,498.845 292.722,498.178 290.5,498.5C 290.5,501.833 290.5,505.167 290.5,508.5C 288.167,508.5 285.833,508.5 283.5,508.5C 283.5,498.833 283.5,489.167 283.5,479.5 Z"/></g>
<g><path style="opacity:1" fill="#1f1e2d" d="M 150.5,484.5 C 152.857,484.337 155.19,484.503 157.5,485C 160.167,487 160.167,489 157.5,491C 155.19,491.497 152.857,491.663 150.5,491.5C 150.5,489.167 150.5,486.833 150.5,484.5 Z"/></g>
<g><path style="opacity:1" fill="#232231" d="M 290.5,484.5 C 297.468,482.971 300.135,485.471 298.5,492C 295.986,493.252 293.32,493.752 290.5,493.5C 290.5,490.5 290.5,487.5 290.5,484.5 Z"/></g>
<g><path style="opacity:1" fill="#222130" d="M 112.5,484.5 C 122.193,484.182 126.026,488.849 124,498.5C 121.217,502.473 117.384,504.139 112.5,503.5C 112.5,497.167 112.5,490.833 112.5,484.5 Z"/></g>
<g><path style="opacity:1" fill="#2a2937" d="M 186.5,496.5 C 183.918,496.975 181.918,496.308 180.5,494.5C 181.031,491.763 181.864,489.096 183,486.5C 184.776,489.597 185.943,492.93 186.5,496.5 Z"/></g>
<g><path style="opacity:1" fill="#252332" d="M 91.5,495.5 C 89.5,496.833 87.5,496.833 85.5,495.5C 87.5,484.833 89.5,484.833 91.5,495.5 Z"/></g>
<g><path style="opacity:1" fill="#6c6c75" d="M 208.5,492.5 C 207.833,497.833 207.167,503.167 206.5,508.5C 206.334,502.491 206.501,496.491 207,490.5C 207.717,491.044 208.217,491.711 208.5,492.5 Z"/></g>
<g><path style="opacity:1" fill="#7e7e86" d="M 85.5,495.5 C 87.5,496.833 89.5,496.833 91.5,495.5C 92.0431,495.56 92.3764,495.893 92.5,496.5C 89.8333,497.833 87.1667,497.833 84.5,496.5C 84.6236,495.893 84.9569,495.56 85.5,495.5 Z"/></g>
<g><path style="opacity:1" fill="#252433" d="M 150.5,495.5 C 152.857,495.337 155.19,495.503 157.5,496C 161.037,497.826 161.371,500.16 158.5,503C 155.854,503.497 153.187,503.664 150.5,503.5C 150.5,500.833 150.5,498.167 150.5,495.5 Z"/></g>
<g><path style="opacity:1" fill="#6f6f78" d="M 180.5,494.5 C 181.918,496.308 183.918,496.975 186.5,496.5C 184.393,497.468 182.059,497.802 179.5,497.5C 179.263,496.209 179.596,495.209 180.5,494.5 Z"/></g>
</svg>
