<svg width="48" height="48" viewBox="0 0 48 48" fill="none" xmlns="http://www.w3.org/2000/svg">
<path d="M24 4.49963C20.1433 4.49963 16.3731 5.64329 13.1664 7.78598C9.95963 9.92866 7.46027 12.9741 5.98436 16.5373C4.50845 20.1005 4.12228 24.0213 4.8747 27.8039C5.62711 31.5865 7.4843 35.0611 10.2114 37.7882C12.9386 40.5153 16.4131 42.3725 20.1957 43.1249C23.9784 43.8774 27.8992 43.4912 31.4623 42.0153C35.0255 40.5394 38.071 38.04 40.2137 34.8333C42.3564 31.6265 43.5 27.8564 43.5 23.9996C43.494 18.8297 41.4377 13.8733 37.782 10.2177C34.1263 6.56199 29.1699 4.50561 24 4.49963ZM31.5 25.4996H25.5V31.4996C25.5 31.8975 25.342 32.279 25.0607 32.5603C24.7794 32.8416 24.3978 32.9996 24 32.9996C23.6022 32.9996 23.2207 32.8416 22.9393 32.5603C22.658 32.279 22.5 31.8975 22.5 31.4996V25.4996H16.5C16.1022 25.4996 15.7207 25.3416 15.4393 25.0603C15.158 24.779 15 24.3975 15 23.9996C15 23.6018 15.158 23.2203 15.4393 22.939C15.7207 22.6577 16.1022 22.4996 16.5 22.4996H22.5V16.4996C22.5 16.1018 22.658 15.7203 22.9393 15.439C23.2207 15.1577 23.6022 14.9996 24 14.9996C24.3978 14.9996 24.7794 15.1577 25.0607 15.439C25.342 15.7203 25.5 16.1018 25.5 16.4996V22.4996H31.5C31.8978 22.4996 32.2794 22.6577 32.5607 22.939C32.842 23.2203 33 23.6018 33 23.9996C33 24.3975 32.842 24.779 32.5607 25.0603C32.2794 25.3416 31.8978 25.4996 31.5 25.4996Z" fill="#4B40D4"/>
</svg>
