<svg width="48" height="22" viewBox="0 0 48 22" fill="none" xmlns="http://www.w3.org/2000/svg">
<path d="M8.20452 -1.73952e-06L48 0L48 22L8.20452 22L-4.80825e-07 11L8.20452 -1.73952e-06Z" fill="#4B40D4"/>
<path d="M9.13142 1.89014L46.1362 1.89014L46.1362 20.11L9.13142 20.11L2.33662 11.0001L9.13142 1.89014Z" fill="#4B40D4"/>
<path d="M45.8701 19.8402L9.26431 19.8402L2.67079 11L9.26431 2.15975L45.8701 2.15975L45.8701 19.8402ZM46.4028 20.3803L46.4028 1.61963L8.99905 1.61963L8.83946 1.83393L2.24594 10.6742L2.00296 11L2.24594 11.3258L8.83946 20.166L8.99905 20.3803L46.4028 20.3803Z" fill="white"/>
<path d="M36.089 16.3993C35.5469 16.3895 35.0585 16.2869 34.6238 16.0916C34.1891 15.8913 33.8253 15.6178 33.5322 15.2711C33.2441 14.9243 33.0316 14.5214 32.8949 14.0623C32.7581 13.6032 32.7093 13.1099 32.7484 12.5825L32.7777 12.2821C32.8363 11.7302 32.9706 11.2052 33.1806 10.707C33.3906 10.2089 33.6714 9.76932 34.0231 9.38837C34.3747 9.00254 34.7899 8.70218 35.2685 8.48728C35.752 8.26751 36.2892 8.16494 36.8802 8.1796C37.4321 8.18936 37.9034 8.30169 38.2941 8.51659C38.6848 8.73148 38.9998 9.01963 39.2391 9.38105C39.4785 9.74246 39.6421 10.1552 39.73 10.6191C39.8179 11.0782 39.835 11.5593 39.7813 12.0623L39.664 12.9414H33.5396L33.7667 11.5349L37.8106 11.5422L37.8472 11.359C37.8863 11.0904 37.8741 10.8413 37.8106 10.6118C37.7471 10.3774 37.6274 10.1893 37.4516 10.0477C37.2758 9.90607 37.0414 9.83037 36.7483 9.8206C36.4113 9.81083 36.1281 9.88165 35.8985 10.0331C35.669 10.1845 35.4809 10.3847 35.3344 10.6338C35.1879 10.8829 35.0756 11.1539 34.9974 11.447C34.9193 11.7351 34.8631 12.0135 34.8289 12.2821L34.7996 12.5751C34.7752 12.834 34.7825 13.0928 34.8216 13.3517C34.8607 13.6057 34.9364 13.8352 35.0487 14.0403C35.1659 14.2455 35.3247 14.4115 35.5249 14.5385C35.73 14.6655 35.9864 14.7338 36.2941 14.7436C36.6848 14.7534 37.0438 14.6777 37.371 14.5165C37.7031 14.3505 38.0011 14.1307 38.2648 13.8572L39.1879 14.9707C38.9681 15.3028 38.6873 15.5763 38.3454 15.7912C38.0084 16.0012 37.6445 16.1551 37.2538 16.2528C36.8631 16.3553 36.4748 16.4042 36.089 16.3993Z" fill="white"/>
<path d="M32.6386 5L30.6899 16.2526H28.624L30.5727 5H32.6386Z" fill="white"/>
<path d="M25.2027 14.4652L25.7595 10.9121C25.7839 10.6972 25.7742 10.497 25.7302 10.3114C25.6862 10.1258 25.5959 9.97929 25.4591 9.87184C25.3273 9.75951 25.1392 9.69846 24.895 9.68869C24.6753 9.68381 24.4775 9.72288 24.3016 9.80591C24.1307 9.88405 23.9891 9.99882 23.8767 10.1502C23.7644 10.2967 23.6863 10.4726 23.6423 10.6777L21.5764 10.6923C21.6008 10.2528 21.7229 9.87428 21.9427 9.55683C22.1674 9.23449 22.4506 8.97075 22.7925 8.76563C23.1344 8.5605 23.5056 8.4091 23.906 8.31142C24.3114 8.21374 24.707 8.16979 25.0928 8.17955C25.6447 8.18932 26.1356 8.3041 26.5654 8.52387C27 8.74365 27.3321 9.05866 27.5617 9.46892C27.7961 9.87428 27.884 10.3676 27.8254 10.9488L27.276 14.348C27.232 14.6312 27.1978 14.9292 27.1734 15.2417C27.149 15.5494 27.1929 15.8425 27.3053 16.1208L27.2906 16.2527L25.2687 16.26C25.1759 15.9719 25.1295 15.6764 25.1295 15.3736C25.1344 15.0659 25.1588 14.7631 25.2027 14.4652ZM25.9939 11.4249L25.7961 12.6191L24.7485 12.6117C24.5385 12.6166 24.3285 12.6459 24.1185 12.6996C23.9134 12.7485 23.7229 12.8266 23.5471 12.9341C23.3713 13.0366 23.2247 13.1709 23.1075 13.337C22.9952 13.5031 22.9244 13.7057 22.8951 13.9451C22.8707 14.116 22.8877 14.2698 22.9464 14.4066C23.005 14.5385 23.0953 14.6435 23.2174 14.7216C23.3444 14.7997 23.4958 14.8413 23.6716 14.8461C23.9207 14.851 24.1649 14.8046 24.4042 14.7069C24.6435 14.6044 24.8511 14.4603 25.0269 14.2747C25.2027 14.0891 25.3248 13.8742 25.3932 13.63L25.8328 14.5458C25.7155 14.8193 25.5666 15.0708 25.3859 15.3003C25.2101 15.5299 25.0074 15.7301 24.7778 15.9011C24.5483 16.0671 24.2968 16.1941 24.0233 16.282C23.7498 16.3748 23.4567 16.4188 23.1442 16.4139C22.7095 16.4041 22.309 16.3016 21.9427 16.1062C21.5813 15.906 21.2931 15.6349 21.0782 15.293C20.8682 14.9463 20.773 14.5433 20.7925 14.0842C20.8121 13.5665 20.9415 13.1368 21.1808 12.7949C21.4201 12.4481 21.7278 12.1746 22.1039 11.9744C22.4848 11.7741 22.8975 11.6325 23.342 11.5495C23.7913 11.4616 24.2357 11.4176 24.6753 11.4176L25.9939 11.4249Z" fill="white"/>
<path d="M17.7598 13.4097C17.8037 13.1509 17.7818 12.9335 17.6938 12.7577C17.6108 12.577 17.4838 12.4256 17.3129 12.3035C17.1468 12.1765 16.9588 12.0691 16.7488 11.9812C16.5437 11.8932 16.3386 11.8127 16.1334 11.7394C15.7574 11.5929 15.3862 11.4268 15.0199 11.2412C14.6585 11.0557 14.3288 10.8359 14.0309 10.5819C13.733 10.3231 13.501 10.0227 13.3349 9.68082C13.1689 9.33406 13.1005 8.92869 13.1298 8.46472C13.164 7.93725 13.3129 7.4806 13.5767 7.09477C13.8404 6.70894 14.175 6.39393 14.5803 6.14973C14.9906 5.90065 15.435 5.7175 15.9136 5.60029C16.3972 5.48307 16.8709 5.42935 17.3349 5.43912C17.9991 5.44888 18.59 5.58808 19.1077 5.85669C19.6254 6.12043 20.0308 6.49649 20.3238 6.98488C20.6218 7.46839 20.761 8.04958 20.7414 8.72845H18.6169C18.6364 8.40611 18.5949 8.12773 18.4924 7.8933C18.3947 7.65398 18.236 7.47084 18.0162 7.34385C17.8013 7.21199 17.5253 7.14117 17.1884 7.1314C16.9002 7.12652 16.6169 7.17292 16.3386 7.27059C16.0651 7.36339 15.8282 7.50991 15.6279 7.71015C15.4326 7.90551 15.3105 8.15947 15.2616 8.47204C15.2226 8.70159 15.2543 8.89939 15.3569 9.06544C15.4643 9.2315 15.6084 9.37313 15.7891 9.49035C15.9747 9.60756 16.1701 9.70768 16.3752 9.79071C16.5852 9.86885 16.7732 9.93967 16.9393 10.0032C17.3349 10.1448 17.7158 10.3133 18.0821 10.5086C18.4533 10.704 18.7805 10.936 19.0638 11.2046C19.3471 11.4683 19.5644 11.7809 19.7158 12.1423C19.8672 12.4989 19.9283 12.914 19.8989 13.3877C19.855 13.9299 19.7085 14.3938 19.4594 14.7797C19.2103 15.1606 18.888 15.4732 18.4924 15.7174C18.0968 15.9567 17.6645 16.1325 17.1957 16.2448C16.7268 16.3572 16.2506 16.4109 15.7671 16.406C15.2397 16.3962 14.7439 16.3132 14.28 16.1569C13.816 16.0006 13.4106 15.776 13.0639 15.4829C12.7171 15.185 12.4485 14.8212 12.258 14.3914C12.0724 13.9567 11.987 13.461 12.0016 12.9042L14.1481 12.9116C14.1286 13.2095 14.1505 13.4708 14.214 13.6954C14.2824 13.9152 14.3899 14.1008 14.5364 14.2522C14.6878 14.4036 14.8734 14.5184 15.0931 14.5965C15.3178 14.6698 15.5791 14.7088 15.877 14.7137C16.1652 14.7137 16.4436 14.6698 16.7122 14.5819C16.9808 14.4939 17.2103 14.3548 17.4008 14.1643C17.5913 13.9689 17.7109 13.7174 17.7598 13.4097Z" fill="white"/>
</svg>
