<svg width="33" height="32" viewBox="0 0 33 32" fill="none" xmlns="http://www.w3.org/2000/svg">
<path d="M16.5 3C13.9288 3 11.4154 3.76244 9.27759 5.1909C7.13975 6.61935 5.47351 8.64968 4.48957 11.0251C3.50563 13.4006 3.24819 16.0144 3.7498 18.5362C4.25141 21.0579 5.48953 23.3743 7.30762 25.1924C9.1257 27.0105 11.4421 28.2486 13.9638 28.7502C16.4856 29.2518 19.0995 28.9944 21.4749 28.0104C23.8503 27.0265 25.8807 25.3603 27.3091 23.2224C28.7376 21.0846 29.5 18.5712 29.5 16C29.496 12.5534 28.1251 9.24912 25.688 6.81201C23.2509 4.3749 19.9466 3.00398 16.5 3ZM22.4231 16.3818C22.3729 16.5039 22.2991 16.6149 22.2058 16.7083L17.9648 20.9492C17.7773 21.1364 17.523 21.2415 17.258 21.2413C16.993 21.2412 16.7389 21.1359 16.5515 20.9485C16.3642 20.7611 16.2588 20.507 16.2587 20.242C16.2585 19.977 16.3636 19.7227 16.5508 19.5352L19.0859 17H11.5C11.2348 17 10.9804 16.8946 10.7929 16.7071C10.6054 16.5196 10.5 16.2652 10.5 16C10.5 15.7348 10.6054 15.4804 10.7929 15.2929C10.9804 15.1054 11.2348 15 11.5 15H19.0859L16.5508 12.4648C16.3636 12.2773 16.2585 12.023 16.2587 11.758C16.2588 11.493 16.3642 11.2389 16.5515 11.0515C16.7389 10.8641 16.993 10.7588 17.258 10.7587C17.523 10.7585 17.7773 10.8636 17.9648 11.0508L22.2058 15.2917C22.3455 15.4318 22.4406 15.61 22.4793 15.8039C22.5179 15.9979 22.4984 16.199 22.4231 16.3818V16.3818Z" fill="#4B40D4"/>
</svg>
